<?xml version="1.0" encoding="utf-8"?>
<!-- Generator: Adobe Illustrator 23.0.2, SVG Export Plug-In . SVG Version: 6.00 Build 0)  -->
<svg version="1.1" id="Layer_1" xmlns="http://www.w3.org/2000/svg" xmlns:xlink="http://www.w3.org/1999/xlink" x="0px" y="0px"
	 viewBox="0 0 1200 1200" style="enable-background:new 0 0 1200 1200;" xml:space="preserve">
<style type="text/css">
	.st0{fill:#FFFFFF;}
</style>
<g>
	<path d="M895.9,1199.2H693l-92.6-30.6l-91.8,30.6H304.9c-167.3,0-303-135.6-303-303v-591c0-167.3,135.6-303,303-303h591
		c167.3,0,303,135.6,303,303v591C1198.8,1063.5,1063.2,1199.2,895.9,1199.2z"/>
	<path class="st0" d="M508,470.5v130.2H357.9v170.9H508v427.6h184.7V771.6h137.7l26.2-170.9h-164V489.8c0-46.8,22.9-92.3,96.3-92.3
		h74.6V252c0,0-67.7-11.5-132.3-11.5C596.3,240.5,508,322.3,508,470.5z"/>
</g>
</svg>
