<?xml version="1.0" encoding="utf-8"?>
<!-- Generator: Adobe Illustrator 23.0.2, SVG Export Plug-In . SVG Version: 6.00 Build 0)  -->
<svg version="1.1" id="Layer_1" xmlns="http://www.w3.org/2000/svg" xmlns:xlink="http://www.w3.org/1999/xlink" x="0px" y="0px"
	 viewBox="0 0 1200 1200" style="enable-background:new 0 0 1200 1200;" xml:space="preserve">
<style type="text/css">
	.st0{fill:#FFFFFF;}
</style>
<g>
	<path d="M1192.8,1199.4H11.1c-5,0-9.1-4.1-9.1-9.1V8.5c0-5,4.1-9.1,9.1-9.1h1181.8c5,0,9.1,4.1,9.1,9.1v1181.8
		C1202,1195.3,1197.9,1199.4,1192.8,1199.4z"/>
	<g>
		<g>
			<g>
				<path class="st0" d="M785.9,377.2c-22.5,0-40.7,18.2-40.7,40.7c0,22.5,18.2,40.7,40.7,40.7c22.5,0,40.7-18.2,40.7-40.7
					C826.7,395.5,808.4,377.2,785.9,377.2z"/>
				<path class="st0" d="M604.8,429.5c-94.4,0-171.1,76.8-171.1,171.1c0,94.4,76.8,171.1,171.1,171.1S775.9,695,775.9,600.6
					C775.9,506.3,699.2,429.5,604.8,429.5z M604.8,710.3c-60.5,0-109.6-49.2-109.6-109.6c0-60.5,49.2-109.6,109.6-109.6
					s109.6,49.2,109.6,109.6C714.4,661.1,665.3,710.3,604.8,710.3z"/>
				<path class="st0" d="M740.7,948.1H463.2c-115.1,0-208.7-93.6-208.7-208.7V461.9c0-115.1,93.6-208.7,208.7-208.7h277.5
					c115.1,0,208.8,93.6,208.8,208.7v277.5C949.4,854.5,855.8,948.1,740.7,948.1z M463.2,318.5c-79.1,0-143.4,64.3-143.4,143.4
					v277.5c0,79.1,64.3,143.4,143.4,143.4h277.5c79.1,0,143.4-64.3,143.4-143.4V461.9c0-79.1-64.3-143.4-143.4-143.4H463.2z"/>
			</g>
		</g>
	</g>
</g>
</svg>
