<?xml version="1.0" standalone="no"?><svg xmlns="http://www.w3.org/2000/svg" viewBox="0 0 1440 320"><path fill="#00cba9" fill-opacity="1" d="M0,32L26.7,69.3C53.3,107,107,181,160,224C213.3,267,267,277,320,240C373.3,203,427,117,480,96C533.3,75,587,117,640,144C693.3,171,747,181,800,154.7C853.3,128,907,64,960,80C1013.3,96,1067,192,1120,229.3C1173.3,267,1227,245,1280,224C1333.3,203,1387,181,1413,170.7L1440,160L1440,320L1413.3,320C1386.7,320,1333,320,1280,320C1226.7,320,1173,320,1120,320C1066.7,320,1013,320,960,320C906.7,320,853,320,800,320C746.7,320,693,320,640,320C586.7,320,533,320,480,320C426.7,320,373,320,320,320C266.7,320,213,320,160,320C106.7,320,53,320,27,320L0,320Z"></path></svg>